<svg xmlns="http://www.w3.org/2000/svg" width="543" height="416" viewBox="0 0 543 416" fill="none">
  <g clip-path="url(#clip0_294_450)">
    <rect width="543" height="416" rx="24" fill="black"/>
    <path fill-rule="evenodd" clip-rule="evenodd" d="M584.888 530.705C583.686 524.304 582.395 518.241 580.987 512.452C589.376 508.812 597.746 505.459 606.115 502.455C606.32 502.365 606.524 502.298 606.731 502.231L606.736 502.228L606.783 502.213C606.839 502.194 606.897 502.175 606.954 502.156C604.02 492.957 600.508 483.952 596.438 475.196L595.15 472.494L595.326 472.417C607.273 468.131 617.128 465.305 625.896 463.031L625.327 461.734C620.38 451.162 614.734 440.93 608.429 431.106C613.798 430.06 619.021 429.147 624.165 428.247L624.295 428.225C627.204 427.723 630.109 427.21 632.96 426.7C633.281 426.639 633.603 426.579 633.926 426.52C634.248 426.461 634.571 426.401 634.892 426.341C629.066 416.489 622.732 406.648 615.971 397.29C627.307 395.361 638.74 393.585 649.725 390.132C642.493 379.205 634.617 368.719 626.138 358.729C615.044 362.966 603.613 366.261 591.967 368.577C600.683 377.519 608.697 387.118 615.94 397.29C607.546 398.747 598.271 400.432 588.181 402.832C595.42 411.897 602.179 421.335 608.431 431.107C597.363 433.199 586.436 435.98 575.715 439.434C569.297 430.229 562.419 421.353 555.109 412.84C565.912 408.837 576.95 405.502 588.162 402.854C580.836 393.652 572.431 383.974 562.787 373.816C550.602 375.879 538.094 378.172 524.604 381.852C517.108 374.1 510.891 365.205 506.189 355.5L505.615 354.191C495.34 357.411 485.251 361.198 475.394 365.535C483.079 373.95 492.869 381.637 501.149 389.447C490.409 393.538 479.929 398.282 469.769 403.653L466.381 400.477C458.818 394.595 452.034 387.773 446.192 380.178L446.489 380.007L446.713 379.867L446.952 379.762C456.933 374.192 466.392 369.526 475.404 365.558C470.486 360.227 466.551 354.068 463.778 347.366C462.502 344.211 461.486 340.957 460.74 337.636C451.318 342.363 441.739 347.554 432.059 353.285C428.303 341.822 427.015 330.42 426.752 319.544C422.394 321.969 418.035 324.484 413.674 327.091C410.967 328.66 408.004 330.501 404.877 332.505C404.831 335.798 404.844 339.066 404.955 342.416C405.267 351.94 406.406 360.197 409.225 367.849C416.957 362.623 423.826 358.047 429.753 354.609L429.952 354.522C430.374 354.267 430.797 354.022 431.22 353.776L431.37 353.688C431.599 353.554 431.829 353.42 432.06 353.285C432.719 355.315 433.458 357.353 434.287 359.386C437.324 366.805 441.324 373.793 446.182 380.17C439.507 384.2 432.858 388.325 426.105 392.606C434.121 400.253 442.944 407.164 451.333 414.424L451.949 414.041C455.533 411.812 459.09 409.601 462.688 407.465C465.092 406.138 467.451 404.868 469.767 403.654C482.303 415.381 492.833 425.45 501.779 434.758C495.734 437.532 489.392 440.57 482.753 443.872C488.474 449.983 493.725 456.516 498.463 463.417C499.85 465.461 501.196 467.555 502.502 469.699C493.584 474.044 484.103 478.929 474.18 484.424C480.524 494.412 485.956 506.291 490.588 522.169L491.612 521.616C500.752 516.651 509.951 511.709 519.229 506.872C514.577 492.584 509.092 480.506 502.502 469.699C509.851 466.125 516.817 462.913 523.356 460.028C525.136 462.501 526.857 464.972 528.478 467.48C534.091 476.178 538.768 485.446 542.43 495.128C552.047 490.442 561.721 485.982 571.437 481.844C567.102 470.782 561.671 460.18 555.226 450.199C554.661 449.324 554.086 448.455 553.513 447.592C560.86 444.74 568.215 441.88 575.711 439.435C583.053 449.925 589.553 460.98 595.151 472.495C587.215 475.351 579.308 478.494 571.43 481.847C575.312 491.819 578.502 502.046 580.978 512.456C571.178 516.7 561.358 521.328 551.479 526.234C549.243 515.657 546.218 505.261 542.431 495.135C534.649 498.929 526.904 502.848 519.195 506.894C522.497 517.322 525.211 527.928 527.323 538.661C535.418 534.376 543.463 530.198 551.479 526.241C552.688 531.732 553.816 537.583 554.875 543.852L584.888 530.705ZM532.881 421.427C540.197 418.486 547.553 415.643 554.948 412.9L554.956 412.897L555.015 412.875L555.108 412.841C550.039 406.905 544.469 400.729 538.326 394.309C533.464 390.486 528.874 386.329 524.588 381.869C517.108 383.88 509.351 386.374 501.179 389.467C513.129 400.788 523.656 411.17 532.881 421.427ZM532.881 421.427C540.375 429.645 547.27 438.389 553.515 447.591C544.995 450.891 534.844 454.961 523.357 460.028C517.335 451.758 510.27 443.597 501.78 434.758C513.36 429.442 523.823 425.054 532.881 421.427Z" fill="#43A363"/>
    <path d="M463.642 583.814C463.506 580.236 463.324 576.752 463.096 573.362C452.794 578.849 442.405 584.25 431.951 589.421C431.763 577.959 430.769 566.524 428.979 555.201C438.782 550.21 448.569 544.976 458.405 539.665C455.596 526.486 450.999 513.753 444.741 501.819C436.065 507.277 427.171 513.199 418.059 519.587C416.369 516.158 414.494 512.825 412.44 509.601C408.73 503.849 404.556 498.409 399.96 493.337C409.049 486.957 417.943 481.026 426.644 475.544C431.247 480.878 435.474 486.523 439.296 492.441C441.238 495.477 443.05 498.598 444.785 501.794C454.947 495.399 464.784 489.628 474.208 484.406C467.998 475.499 461.355 467.01 453.503 459.444C444.842 464.345 435.874 469.686 426.647 475.516C418.505 465.973 409.247 457.175 399.342 448.3C407.801 442.659 415.737 437.379 423.371 432.378L423.309 432.324C420.454 429.845 417.49 427.27 414.397 424.559C408.842 420.233 403.644 415.469 398.852 410.312C391.079 415.444 382.99 420.84 374.427 426.583C377.779 429.517 381.09 432.392 384.359 435.208C389.486 439.645 394.496 443.993 399.327 448.294C394.871 451.267 390.265 454.346 385.507 457.53C382.368 459.633 379.154 461.783 375.864 463.978L371.91 466.62C369.196 464.239 366.458 461.883 363.739 459.508L360.828 456.977L366.604 470.162L366.676 470.114C366.791 470.037 366.906 469.96 367.021 469.884L367.028 469.881C368.675 468.783 370.302 467.696 371.91 466.621C382.954 476.284 392.189 484.673 399.944 493.327C399.259 493.807 398.575 494.288 397.887 494.776C392.8 498.23 387.69 501.806 383.305 504.876L382.16 505.677L395.204 535.455C397.386 533.949 399.934 532.172 402.602 530.308C407.742 526.716 412.906 523.158 418.06 519.588C422.855 529.329 426.585 540.782 428.98 555.203C422.105 558.731 415.224 562.142 408.337 565.437L421.141 594.668C424.753 592.951 428.357 591.203 431.952 589.423C432.01 592.098 432.05 594.831 432.053 597.653L463.642 583.814Z" fill="#43A363"/>
    <path d="M362.868 434.296C359.845 436.317 356.757 438.381 353.605 440.488L339.481 408.243C343.74 406.789 347.908 405.079 351.962 403.125C358.149 412.32 366.058 419.318 374.353 426.506L374.424 426.572C372.164 428.083 369.869 429.617 367.539 431.176L362.868 434.296Z" fill="#43A363"/>
    <path d="M327.54 378.597C331.589 377.304 335.532 375.703 339.337 373.809C341.684 384.273 345.944 394.214 351.902 403.131C362.011 398.347 372.433 392.103 382.177 385.85L381.862 385.132C377.007 374.443 374.724 363.755 373.704 353.309C372.381 354.194 371.061 355.065 369.753 355.924C358.766 363.12 348.417 369.406 339.404 373.777C338.534 370.044 337.846 366.267 337.34 362.446C336.406 355.121 335.887 347.749 335.786 340.365C348.287 333.872 360.785 327.373 373.281 320.87C373.061 328.563 372.863 336.357 373.107 343.429C373.22 346.688 373.416 349.959 373.739 353.3C377.424 350.857 381.171 348.323 384.89 345.807L384.907 345.795L384.911 345.793L385.923 345.108C392.516 340.646 398.996 336.262 404.875 332.489C404.924 328.713 405.027 324.899 405.168 320.854C405.335 315.696 405.512 310.179 405.559 303.918C395.316 309.338 384.19 315.158 373.295 320.836L373.373 318.044L373.387 317.58C373.533 312.654 373.675 307.842 373.705 303.371C373.748 297.293 373.628 291.16 373.177 284.908C361.241 291.16 348.83 297.614 337.53 303.49L335.918 304.328C335.937 309.418 335.877 314.473 335.809 319.4L335.746 325.368C335.7 330.477 335.687 335.454 335.786 340.34C326.029 345.41 318.411 349.393 314.608 351.458L326.631 378.905L327.54 378.597Z" fill="#43A363"/>
    <path d="M303.876 324.988C303.869 325.628 303.863 326.27 303.857 326.914L301.772 322.153C302.436 321.798 303.152 321.418 303.919 321.013L303.876 324.988Z" fill="#43A363"/>
    <path d="M304.07 305.456C304.073 309.731 304.019 314.115 303.959 318.641L303.931 321.008C314.462 315.442 325.023 309.93 335.612 304.473L335.619 304.47C336.988 303.765 335.722 293.396 335.649 291.624L304.07 305.456Z" fill="#43A363"/>
    <path d="M373.167 284.899C372.955 281.788 372.648 278.686 372.247 275.593L402.427 262.373C402.812 264.526 403.157 266.655 403.46 268.76C411.496 264.391 419.59 260.407 427.682 256.757C428.279 263.293 428.472 269.858 428.261 276.417C428.142 280.78 427.875 285.822 427.593 291.1L427.54 292.157C438.243 286.762 449.095 282.037 460.042 277.75C459.863 284.041 459.561 289.543 459.269 294.749C459.105 297.614 458.954 300.389 458.823 303.177C448.267 308.114 437.518 313.519 426.74 319.522C426.71 318.323 426.692 317.126 426.683 315.932C426.653 308.597 427.068 300.196 427.487 292.264C422.921 294.56 418.386 296.994 413.882 299.564L413.462 299.748C411.264 300.888 409.029 302.07 406.753 303.274C406.353 303.485 405.951 303.698 405.549 303.911L405.52 303.638C405.712 291.981 405.022 280.327 403.459 268.775C401.716 269.726 399.975 270.691 398.246 271.678C390.591 275.755 382.016 280.271 373.167 284.899Z" fill="#43A363"/>
    <path d="M494.524 288.054L494.594 290.343L494.596 290.403C494.858 298.461 495.132 306.904 495.776 314.202C495.981 316.587 496.24 318.993 496.553 321.419C484.911 326.136 472.953 331.478 460.731 337.612C459.191 330.443 458.457 323.125 458.545 315.793C458.515 311.391 458.641 307.282 458.824 303.176C470.981 297.51 482.928 292.507 494.524 288.054Z" fill="#43A363"/>
    <path d="M494.524 288.054C505.364 283.891 515.886 280.216 525.982 276.935C525.92 275.788 525.866 274.64 525.798 273.492C525.472 267.875 524.976 262.011 524.19 256.01C522.261 256.623 520.334 257.235 518.409 257.846C516.594 258.423 514.78 258.985 512.966 259.534C506.392 261.619 499.823 263.717 493.27 265.877C492.406 256.199 490.525 246.638 487.657 237.354L486.755 234.469C477.369 237.556 467.801 240.779 458.152 244.344C457.822 242.375 457.442 240.415 457.011 238.464L427.091 251.57C427.352 253.298 427.562 255.033 427.722 256.775C437.869 252.156 448.057 248.077 458.154 244.343C460.099 255.771 460.364 266.854 460.046 277.24L460.045 277.748C471.046 273.445 482.154 269.589 493.264 265.906C493.572 269.029 493.8 272.149 493.993 275.311C494.218 279.196 494.377 283.543 494.524 288.054Z" fill="#43A363"/>
    <path d="M484.307 226.508L484.728 227.891L484.733 227.9L484.745 227.928C485.367 229.971 486.029 232.143 486.755 234.461C492.348 232.639 497.878 230.878 503.329 229.145L507.617 227.789C510.818 226.777 513.975 225.777 517.106 224.782C516.472 222.747 515.844 220.71 515.232 218.693C514.711 216.988 514.195 215.298 513.682 213.64L484.307 226.508Z" fill="#43A363"/>
    <path d="M544.758 215.638C543.526 211.009 542.01 206.46 540.219 202.017L569.401 189.234C571.363 194.041 573.066 198.95 574.503 203.939C565.061 208.2 555.126 212.001 544.758 215.638Z" fill="#43A363"/>
    <path d="M517.122 224.783C526.662 221.746 535.879 218.753 544.758 215.637C547.5 225.992 548.941 236.477 550.089 247.557C541.509 250.514 532.842 253.273 524.194 256.01C522.763 245.412 520.396 234.962 517.122 224.783Z" fill="#43A363"/>
    <path d="M587.507 292.595C595.951 290.414 604.413 288.296 612.827 286C607.489 276.614 603.442 266.551 600.793 256.083C597.368 256.975 593.722 257.916 589.853 258.904C587.756 259.442 585.59 259.996 583.355 260.567L583.383 260.876C583.776 265.162 584.158 269.322 584.603 273.323C585.36 279.957 586.243 286.337 587.483 292.597C577.931 295.063 567.629 297.766 556.698 300.905C559.444 313.827 563.705 326.984 570.88 340.077C582.335 338.096 593.054 335.999 603.691 332.76C594.959 319.891 590.317 306.644 587.507 292.595Z" fill="#43A363"/>
    <path d="M537.221 346.079C526.541 348.23 515.98 350.934 505.581 354.179C500.478 343.166 497.942 332.13 496.522 321.433C507.158 317.144 517.449 313.335 527.394 310.006C526.872 303.542 526.695 297.616 526.507 291.2C526.38 286.798 526.245 282.156 525.985 276.941C535.078 273.982 543.827 271.348 552.12 268.976C552.382 271.557 552.649 274.184 552.944 276.841C553.84 284.744 554.96 292.764 556.691 300.907C547.357 303.582 537.565 306.576 527.401 310.005L527.516 311.444C528.507 322.739 530.494 332.498 534.904 341.71C535.602 343.16 536.373 344.612 537.221 346.079Z" fill="#43A363"/>
    <path d="M537.221 346.079C546.078 344.262 554.497 342.844 562.589 341.487C563.339 341.361 564.087 341.236 564.831 341.113C566.872 340.777 568.885 340.44 570.873 340.08C576.558 350.513 583.661 360.108 591.978 368.593C582.288 370.575 572.527 372.119 562.785 373.803C554.026 364.594 543.757 357.409 537.221 346.079Z" fill="#43A363"/>
    <path d="M410.853 371.942C410.262 370.592 409.673 369.248 409.192 367.863L405.249 370.531C399.646 374.329 393.623 378.409 387.215 382.609C386.171 383.296 385.093 383.991 384.006 384.692L383.957 384.723L383.95 384.726C383.37 385.1 382.787 385.477 382.206 385.853C386.436 394.825 392.042 403.081 398.821 410.322C408.28 404.089 417.264 398.225 426.078 392.629C418.56 385.401 413.889 378.531 410.853 371.942Z" fill="#43A363"/>
    <path d="M423.366 432.365C433.064 426.006 442.257 420.085 451.352 414.429C462.866 424.41 473.409 433.778 482.752 443.866C473.519 448.509 463.742 453.669 453.534 459.45C443.925 449.938 433.562 441.234 423.366 432.365Z" fill="#43A363"/>
  </g>
  <defs>
    <clipPath id="clip0_294_450">
      <rect width="543" height="416" rx="24" fill="white"/>
    </clipPath>
  </defs>
</svg>